<?xml version="1.0" encoding="utf-8"?>
<svg width="229.031" height="70.5" viewBox="0 0 229.031 70.5" xmlns="http://www.w3.org/2000/svg">
  <defs>
    <style>.cls-1 { fill: rgb(97, 201, 239); fill-rule: evenodd; opacity: 0.4; }</style>
  </defs>
  <path id="_-30_" data-name="-30%" class="cls-1" d="M413.587,2041.43a3.222,3.222,0,0,0-3.895,3.89v5.8a3.222,3.222,0,0,0,3.895,3.89h21.09a3.222,3.222,0,0,0,3.895-3.89v-5.8a3.222,3.222,0,0,0-3.895-3.89h-21.09ZM488.5,2009.7q-6.079-5.22-17-5.23-10.639,0-16.957,3.99a23.022,23.022,0,0,0-9.263,11.97q-1.33,3.615,2.375,4.94l7.125,2.57a3.339,3.339,0,0,0,4.94-2.47,11.283,11.283,0,0,1,3.7-5.42q2.28-1.6,7.22-1.61,8.359,0,8.36,7.03a6.087,6.087,0,0,1-2.327,5.18,9.756,9.756,0,0,1-6.033,1.75h-5.605a3.232,3.232,0,0,0-3.895,3.9v5.89a4.06,4.06,0,0,0,.855,2.99,4.418,4.418,0,0,0,3.04.81h7.5q7.98,0,7.98,7.41t-9.5,7.41q-5.224,0-7.79-1.66a10.713,10.713,0,0,1-3.99-5.37,5.144,5.144,0,0,0-1.9-2.66,3.707,3.707,0,0,0-3.04.19l-7.125,2.56q-3.7,1.335-2.375,4.94,5.891,15.96,26.695,15.96,12.446,0,18.81-5.6t6.365-15.3q0-11.115-9.215-15.86,7.125-4.56,7.125-14.06Q494.581,2014.92,488.5,2009.7Zm14.513,41.23q0,11.025,6.887,17.43t19.143,6.41q12.255,0,19.047-6.36t6.793-17.48v-22.8q0-10.92-6.84-17.29t-19-6.37q-12.255,0-19.143,6.37t-6.887,17.29v22.8Zm36.48,0.28a8.828,8.828,0,0,1-2.755,6.99q-2.757,2.415-7.7,2.42-5.13,0-7.885-2.42a8.822,8.822,0,0,1-2.755-6.99v-23.27q0-4.56,2.755-6.94t7.885-2.37q4.938,0,7.7,2.37t2.755,6.94v23.27Zm24.183-25.55q0,6.645,4.228,10.4t12.112,3.75q7.884,0,12.113-3.75t4.227-10.4v-6.84q0-6.75-4.227-10.59-4.228-3.855-12.113-3.85t-12.112,3.85q-4.228,3.84-4.228,10.59v6.84Zm59.47-19.76a11.575,11.575,0,0,0-4.37.57,8.1,8.1,0,0,0-2.755,2.66l-44.46,60.32a2.774,2.774,0,0,0-.617,2.76q0.52,1.14,2.612,1.14h5.605a12.682,12.682,0,0,0,4.655-.57,9.154,9.154,0,0,0,2.945-2.85l44.27-60.33a2.514,2.514,0,0,0,.618-2.61c-0.349-.73-1.157-1.09-2.423-1.09h-6.08Zm-38.19,18.9q0,4.275-4.94,4.28t-4.94-4.28v-5.41c0-2.72,1.646-4.09,4.94-4.09s4.94,1.37,4.94,4.09v5.41Zm21.09,35.82q0,6.75,4.228,10.5t12.112,3.75q7.884,0,12.113-3.75t4.227-10.5v-6.84q0-6.75-4.227-10.55t-12.113-3.8q-7.887,0-12.112,3.8t-4.228,10.55v6.84Zm21.28-.76q0,4.185-4.94,4.18t-4.94-4.18v-5.42c0-2.78,1.646-4.18,4.94-4.18s4.94,1.4,4.94,4.18v5.42Z" transform="translate(-409.688 -2004.38)"/>
</svg>